C:\Users\Nicos\Documents\OpenSimProjects\SprintingProject\Study1\PredictiveResults\IC_pred_Sprinting_optimum_26-October-2023__10-52-28_p02_maxVel_01___Nominal_GRF.mot
version=1
nRows=5
nColumns=127
inDegrees=yes
endheader
time	ground_force_vx	ground_force_vy	ground_force_vz	ground_force_px	ground_force_py	ground_force_pz	ground_torque_x	ground_torque_y	ground_torque_z	1_ground_force_vx	1_ground_force_vy	1_ground_force_vz	1_ground_force_px	1_ground_force_py	1_ground_force_pz	1_ground_torque_x	1_ground_torque_y	1_ground_torque_z	2_ground_force_vx	2_ground_force_vy	2_ground_force_vz	2_ground_force_px	2_ground_force_py	2_ground_force_pz	2_ground_torque_x	2_ground_torque_y	2_ground_torque_z	3_ground_force_vx	3_ground_force_vy	3_ground_force_vz	3_ground_force_px	3_ground_force_py	3_ground_force_pz	3_ground_torque_x	3_ground_torque_y	3_ground_torque_z	4_ground_force_vx	4_ground_force_vy	4_ground_force_vz	4_ground_force_px	4_ground_force_py	4_ground_force_pz	4_ground_torque_x	4_ground_torque_y	4_ground_torque_z	5_ground_force_vx	5_ground_force_vy	5_ground_force_vz	5_ground_force_px	5_ground_force_py	5_ground_force_pz	5_ground_torque_x	5_ground_torque_y	5_ground_torque_z	6_ground_force_vx	6_ground_force_vy	6_ground_force_vz	6_ground_force_px	6_ground_force_py	6_ground_force_pz	6_ground_torque_x	6_ground_torque_y	6_ground_torque_z	7_ground_force_vx	7_ground_force_vy	7_ground_force_vz	7_ground_force_px	7_ground_force_py	7_ground_force_pz	7_ground_torque_x	7_ground_torque_y	7_ground_torque_z	8_ground_force_vx	8_ground_force_vy	8_ground_force_vz	8_ground_force_px	8_ground_force_py	8_ground_force_pz	8_ground_torque_x	8_ground_torque_y	8_ground_torque_z	9_ground_force_vx	9_ground_force_vy	9_ground_force_vz	9_ground_force_px	9_ground_force_py	9_ground_force_pz	9_ground_torque_x	9_ground_torque_y	9_ground_torque_z	10_ground_force_vx	10_ground_force_vy	10_ground_force_vz	10_ground_force_px	10_ground_force_py	10_ground_force_pz	10_ground_torque_x	10_ground_torque_y	10_ground_torque_z	11_ground_force_vx	11_ground_force_vy	11_ground_force_vz	11_ground_force_px	11_ground_force_py	11_ground_force_pz	11_ground_torque_x	11_ground_torque_y	11_ground_torque_z	12_ground_force_vx	12_ground_force_vy	12_ground_force_vz	12_ground_force_px	12_ground_force_py	12_ground_force_pz	12_ground_torque_x	12_ground_torque_y	12_ground_torque_z	13_ground_force_vx	13_ground_force_vy	13_ground_force_vz	13_ground_force_px	13_ground_force_py	13_ground_force_pz	13_ground_torque_x	13_ground_torque_y	13_ground_torque_z
0.212925	-0.000000	0.000000	-0.000000	1.115827	0.207959	0.420363	0.000000	0.000000	0.000000	-0.000000	0.000000	-0.000000	1.140000	0.226915	0.441471	0.000000	0.000000	0.000000	-0.000000	0.000000	-0.000000	1.156827	0.236129	0.439094	0.000000	0.000000	0.000000	-0.000000	0.000000	-0.000000	1.152993	0.234930	0.416822	0.000000	0.000000	0.000000	-0.000000	0.000000	-0.000000	1.197391	0.274325	0.469810	0.000000	0.000000	0.000000	-0.000000	0.000000	-0.000000	1.169192	0.249563	0.434075	0.000000	0.000000	0.000000	-0.000000	0.000000	-0.000000	1.218651	0.303300	0.413999	0.000000	0.000000	0.000000	-0.000000	0.000000	0.000000	2.448816	0.085449	0.148000	0.000000	0.000000	0.000000	-0.000000	0.000000	0.000000	2.406288	0.091803	0.125703	0.000000	0.000000	0.000000	-0.000000	0.000000	0.000000	2.373389	0.090555	0.132083	0.000000	0.000000	0.000000	-0.000000	0.000000	0.000000	2.375112	0.085052	0.151891	0.000000	0.000000	0.000000	-0.000000	0.000000	0.000000	2.290543	0.103185	0.101696	0.000000	0.000000	0.000000	-0.000000	0.000000	0.000000	2.343601	0.091205	0.135396	0.000000	0.000000	0.000000	-0.000000	0.000000	0.000000	2.224448	0.093805	0.148649	0.000000	0.000000	0.000000
0.214405	-0.000000	0.000000	-0.000000	1.137238	0.210070	0.421391	0.000000	0.000000	0.000000	-0.000000	0.000000	-0.000000	1.161538	0.229016	0.442387	0.000000	0.000000	0.000000	-0.000000	0.000000	-0.000000	1.178383	0.238217	0.439938	0.000000	0.000000	0.000000	-0.000000	0.000000	-0.000000	1.174468	0.237014	0.417681	0.000000	0.000000	0.000000	-0.000000	0.000000	-0.000000	1.219161	0.276397	0.470456	0.000000	0.000000	0.000000	-0.000000	0.000000	-0.000000	1.190768	0.251641	0.434856	0.000000	0.000000	0.000000	-0.000000	0.000000	-0.000000	1.240311	0.305335	0.414527	0.000000	0.000000	0.000000	-0.000000	0.000000	0.000000	2.465148	0.084171	0.147915	0.000000	0.000000	0.000000	-0.000000	0.000000	0.000000	2.422613	0.090586	0.125702	0.000000	0.000000	0.000000	-0.000000	0.000000	0.000000	2.389839	0.089366	0.132010	0.000000	0.000000	0.000000	-0.000000	0.000000	0.000000	2.391561	0.083794	0.151741	0.000000	0.000000	0.000000	-0.000000	0.000000	0.000000	2.306973	0.101992	0.101675	0.000000	0.000000	0.000000	-0.000000	0.000000	0.000000	2.360043	0.089963	0.135285	0.000000	0.000000	0.000000	-0.000000	0.000000	0.000000	2.240856	0.092353	0.148386	0.000000	0.000000	0.000000
0.215052	-0.000000	0.000000	-0.000000	1.146647	0.210966	0.421849	0.000000	0.000000	0.000000	-0.000000	0.000000	-0.000000	1.170998	0.229910	0.442795	0.000000	0.000000	0.000000	-0.000000	0.000000	-0.000000	1.187848	0.239107	0.440313	0.000000	0.000000	0.000000	-0.000000	0.000000	-0.000000	1.183899	0.237900	0.418063	0.000000	0.000000	0.000000	-0.000000	0.000000	-0.000000	1.228712	0.277281	0.470741	0.000000	0.000000	0.000000	-0.000000	0.000000	-0.000000	1.200240	0.252526	0.435202	0.000000	0.000000	0.000000	-0.000000	0.000000	-0.000000	1.249805	0.306204	0.414759	0.000000	0.000000	0.000000	-0.000000	0.000000	0.000000	2.472151	0.083585	0.147872	0.000000	0.000000	0.000000	-0.000000	0.000000	0.000000	2.429614	0.090031	0.125700	0.000000	0.000000	0.000000	-0.000000	0.000000	0.000000	2.396899	0.088828	0.131979	0.000000	0.000000	0.000000	-0.000000	0.000000	0.000000	2.398621	0.083226	0.151676	0.000000	0.000000	0.000000	-0.000000	0.000000	0.000000	2.314024	0.101457	0.101670	0.000000	0.000000	0.000000	-0.000000	0.000000	0.000000	2.367099	0.089404	0.135239	0.000000	0.000000	0.000000	-0.000000	0.000000	0.000000	2.247899	0.091708	0.148278	0.000000	0.000000	0.000000
0.217094	-0.000000	0.000000	-0.000000	1.176598	0.213700	0.423328	0.000000	0.000000	0.000000	-0.000000	0.000000	-0.000000	1.201097	0.232643	0.444108	0.000000	0.000000	0.000000	-0.000000	0.000000	-0.000000	1.217957	0.241828	0.441521	0.000000	0.000000	0.000000	-0.000000	0.000000	-0.000000	1.213895	0.240610	0.419293	0.000000	0.000000	0.000000	-0.000000	0.000000	-0.000000	1.259062	0.279995	0.471656	0.000000	0.000000	0.000000	-0.000000	0.000000	-0.000000	1.230355	0.255237	0.436317	0.000000	0.000000	0.000000	-0.000000	0.000000	-0.000000	1.279949	0.308872	0.415502	0.000000	0.000000	0.000000	-0.000000	0.000000	0.000000	2.493772	0.081619	0.147713	0.000000	0.000000	0.000000	-0.000000	0.000000	0.000000	2.451225	0.088177	0.125691	0.000000	0.000000	0.000000	-0.000000	0.000000	0.000000	2.418717	0.087051	0.131886	0.000000	0.000000	0.000000	-0.000000	0.000000	0.000000	2.420437	0.081352	0.151472	0.000000	0.000000	0.000000	-0.000000	0.000000	0.000000	2.335821	0.099707	0.101681	0.000000	0.000000	0.000000	-0.000000	0.000000	0.000000	2.388908	0.087566	0.135103	0.000000	0.000000	0.000000	-0.000000	0.000000	0.000000	2.269671	0.089626	0.147971	0.000000	0.000000	0.000000
0.218574	-0.000000	0.000000	-0.000000	1.198511	0.215591	0.424427	0.000000	0.000000	0.000000	-0.000000	0.000000	-0.000000	1.223105	0.234537	0.445082	0.000000	0.000000	0.000000	-0.000000	0.000000	-0.000000	1.239965	0.243716	0.442417	0.000000	0.000000	0.000000	-0.000000	0.000000	-0.000000	1.235821	0.242490	0.420207	0.000000	0.000000	0.000000	-0.000000	0.000000	-0.000000	1.281219	0.281887	0.472333	0.000000	0.000000	0.000000	-0.000000	0.000000	-0.000000	1.252358	0.257120	0.437144	0.000000	0.000000	0.000000	-0.000000	0.000000	-0.000000	1.301931	0.310733	0.416050	0.000000	0.000000	0.000000	-0.000000	0.000000	0.000000	2.508968	0.080080	0.147588	0.000000	0.000000	0.000000	-0.000000	0.000000	0.000000	2.466414	0.086732	0.125691	0.000000	0.000000	0.000000	-0.000000	0.000000	0.000000	2.434072	0.085682	0.131834	0.000000	0.000000	0.000000	-0.000000	0.000000	0.000000	2.435790	0.079915	0.151340	0.000000	0.000000	0.000000	-0.000000	0.000000	0.000000	2.351167	0.098377	0.101719	0.000000	0.000000	0.000000	-0.000000	0.000000	0.000000	2.404258	0.086160	0.135025	0.000000	0.000000	0.000000	-0.000000	0.000000	0.000000	2.285000	0.088074	0.147790	0.000000	0.000000	0.000000
